<svg id="Layer_1" data-name="Layer 1" xmlns="http://www.w3.org/2000/svg" viewBox="0 0 252.34 148.14"><defs><style>.cls-1,.cls-2,.cls-3,.cls-4{stroke:#000;stroke-miterlimit:10;}.cls-1{stroke-width:0.34px;}.cls-2{stroke-width:0.3px;}.cls-3{stroke-width:0.29px;}.cls-4{stroke-width:0.27px;}.cls-5{isolation:isolate;font-size:54.57px;font-family:Elephant-Italic, Elephant;font-style:italic;}</style></defs><g id="Front_Logo" data-name="Front Logo"><path class="cls-1" d="M188.81,81.33l-58.57.5s-15.18.55-33.68,18.8-56,68-56,68L18.33,196.82v-6.45l62.42-78.68s27-32.9,49.72-33.18,49.56,0,49.56,0l8.78-.12Z" transform="translate(-18.16 -70.18)"/><path class="cls-1" d="M190,76.85s.71-5.25,8.3-6.36S203.51,75.22,190,76.85Z" transform="translate(-18.16 -70.18)"/><path class="cls-1" d="M194.25,82c-7.59-1.09-4.07-6.07,9.38-3.81,0,0-1.79,4.9-9.38,3.81" transform="translate(-18.16 -70.18)"/><path class="cls-1" d="M198.66,90.28c7.62.8,5.08-4.93-8.48-6,0,0,.87,5.22,8.48,6" transform="translate(-18.16 -70.18)"/><path class="cls-1" d="M208.47,89.13c7.58,1.19,5.26-4.67-8.24-6.46,0,0,.66,5.26,8.24,6.46" transform="translate(-18.16 -70.18)"/><path class="cls-1" d="M205.64,77c-7.64.44-4.91-5.17,8.68-5.63,0,0-1,5.18-8.68,5.63" transform="translate(-18.16 -70.18)"/><path class="cls-1" d="M213.61,83.39c7.56-1.29,3.95-6.18-9.45-3.56,0,0,1.88,4.84,9.45,3.56" transform="translate(-18.16 -70.18)"/><path class="cls-1" d="M221.73,76.74c7-3.61,2.39-7.19-9.92-.46,0,0,2.93,4.08,9.92.46" transform="translate(-18.16 -70.18)"/><path class="cls-1" d="M222.08,89.19c7.62-.73,4.28-5.88-9.24-4.24,0,0,1.62,5,9.24,4.24" transform="translate(-18.16 -70.18)"/><path class="cls-1" d="M222.76,78.55c-7,3.61-2.37,7.19,9.93.45,0,0-2.93-4.07-9.93-.45" transform="translate(-18.16 -70.18)"/><path class="cls-2" d="M225.39,84.2s5.24-2.52,9.65,2.64S229.75,88.87,225.39,84.2Z" transform="translate(-18.16 -70.18)"/><path class="cls-3" d="M235.8,72.09c5.89,2.08-4,4.47-9.62,2.78,0,0,3.73-4.86,9.62-2.78" transform="translate(-18.16 -70.18)"/><path class="cls-3" d="M268.33,78.5c5.89,2.08-3.95,4.48-9.62,2.79,0,0,3.73-4.86,9.62-2.79" transform="translate(-18.16 -70.18)"/><path class="cls-3" d="M258.18,75.3c6,1.58-3.67,4.8-9.43,3.58,0,0,3.42-5.16,9.43-3.58" transform="translate(-18.16 -70.18)"/><path class="cls-3" d="M247,73.67c6,1.58-3.66,4.8-9.42,3.58,0,0,3.42-5.16,9.42-3.58" transform="translate(-18.16 -70.18)"/><path class="cls-3" d="M249.18,83.05c-5.19-3.87,4.84-3,9.9.39a8.39,8.39,0,0,1-9.9-.39" transform="translate(-18.16 -70.18)"/><path class="cls-3" d="M240.75,81.64c-3.85-5.6,5.43-1.08,9.28,4.06,0,0-5.43,1.55-9.28-4.06" transform="translate(-18.16 -70.18)"/><path class="cls-4" d="M240.42,84.23c3.28,5.34-4.88,1.34-8.18-3.54,0,0,4.89-1.8,8.18,3.54" transform="translate(-18.16 -70.18)"/><text class="cls-5" transform="translate(72.81 69.24) scale(0.86 1)">Better</text><text class="cls-5" transform="translate(26.98 123.28) scale(0.86 1)">Bites</text><path class="cls-1" d="M99.86,207.17l58.57-.5s15.18-.55,33.68-18.8,56-68,56-68l22.25-28.16v6.45l-62.42,78.68S181,209.71,158.2,210s-49.57,0-49.57,0l-8.77.12Z" transform="translate(-18.16 -70.18)"/><path class="cls-1" d="M98.67,211.65s-.7,5.25-8.3,6.36S85.16,213.28,98.67,211.65Z" transform="translate(-18.16 -70.18)"/><path class="cls-1" d="M94.42,206.46c7.59,1.09,4.07,6.07-9.38,3.81,0,0,1.79-4.9,9.38-3.81" transform="translate(-18.16 -70.18)"/><path class="cls-1" d="M90,198.22c-7.61-.8-5.08,4.93,8.49,6,0,0-.87-5.22-8.49-6" transform="translate(-18.16 -70.18)"/><path class="cls-1" d="M80.19,199.37c-7.57-1.19-5.26,4.67,8.25,6.46,0,0-.67-5.26-8.25-6.46" transform="translate(-18.16 -70.18)"/><path class="cls-1" d="M83,211.5c7.64-.44,4.9,5.17-8.69,5.63,0,0,1.06-5.18,8.69-5.63" transform="translate(-18.16 -70.18)"/><path class="cls-1" d="M75.06,205.11c-7.57,1.29-4,6.18,9.45,3.56,0,0-1.88-4.84-9.45-3.56" transform="translate(-18.16 -70.18)"/><path class="cls-1" d="M66.94,211.76c-7,3.61-2.39,7.19,9.92.46,0,0-2.93-4.08-9.92-.46" transform="translate(-18.16 -70.18)"/><path class="cls-1" d="M66.58,199.31c-7.62.73-4.28,5.88,9.25,4.24,0,0-1.62-5-9.25-4.24" transform="translate(-18.16 -70.18)"/><path class="cls-1" d="M65.9,210c7-3.61,2.38-7.19-9.92-.45,0,0,2.93,4.07,9.92.45" transform="translate(-18.16 -70.18)"/><path class="cls-2" d="M63.28,204.3s-5.25,2.52-9.65-2.64S58.92,199.63,63.28,204.3Z" transform="translate(-18.16 -70.18)"/><path class="cls-3" d="M52.87,216.41c-5.89-2.08,4-4.47,9.62-2.78,0,0-3.73,4.86-9.62,2.78" transform="translate(-18.16 -70.18)"/><path class="cls-3" d="M20.34,210c-5.9-2.08,3.95-4.48,9.61-2.79,0,0-3.72,4.86-9.61,2.79" transform="translate(-18.16 -70.18)"/><path class="cls-3" d="M30.49,213.2c-6-1.58,3.66-4.8,9.42-3.58,0,0-3.41,5.16-9.42,3.58" transform="translate(-18.16 -70.18)"/><path class="cls-3" d="M41.62,214.83c-6-1.58,3.67-4.8,9.43-3.58,0,0-3.42,5.16-9.43,3.58" transform="translate(-18.16 -70.18)"/><path class="cls-3" d="M39.49,205.45c5.18,3.87-4.85,3.05-9.91-.39a8.41,8.41,0,0,1,9.91.39" transform="translate(-18.16 -70.18)"/><path class="cls-3" d="M47.92,206.86c3.84,5.6-5.43,1.08-9.29-4.06,0,0,5.43-1.55,9.29,4.06" transform="translate(-18.16 -70.18)"/><path class="cls-4" d="M48.25,204.27c-3.28-5.34,4.88-1.34,8.17,3.54,0,0-4.89,1.8-8.17-3.54" transform="translate(-18.16 -70.18)"/></g></svg>